<svg width="20" height="20" viewBox="0 0 20 20" fill="none" xmlns="http://www.w3.org/2000/svg">
<path fill-rule="evenodd" clip-rule="evenodd" d="M19.8382 9.1263L19.609 11.5616C19.2313 15.5742 19.0425 17.5805 17.8599 18.7902C16.6773 20 14.9048 20 11.3599 20H8.6401C5.09517 20 3.32271 20 2.14009 18.7902C0.957478 17.5805 0.768648 15.5742 0.390998 11.5616L0.161808 9.1263C-0.0182024 7.2137 -0.108202 6.25739 0.218988 5.86207C0.395978 5.64823 0.636658 5.5172 0.893988 5.4946C1.36968 5.45282 1.96708 6.1329 3.16187 7.49307C3.77977 8.1965 4.08872 8.5482 4.43337 8.6027C4.62434 8.6328 4.81892 8.6018 4.99526 8.5131C5.31351 8.3529 5.5257 7.91812 5.95007 7.04852L8.1869 2.46486C8.9888 0.82162 9.3898 0 10 0C10.6102 0 11.0112 0.82162 11.8131 2.46485L14.0499 7.04851C14.4743 7.91812 14.6865 8.3529 15.0047 8.5131C15.1811 8.6018 15.3757 8.6328 15.5666 8.6027C15.9113 8.5482 16.2202 8.1965 16.8381 7.49307C18.0329 6.1329 18.6303 5.45282 19.106 5.4946C19.3633 5.5172 19.604 5.64823 19.781 5.86207C20.1082 6.25739 20.0182 7.2137 19.8382 9.1263ZM10.9524 10.699L10.8541 10.5227C10.4741 9.841 10.2841 9.5002 10 9.5002C9.7159 9.5002 9.5259 9.841 9.1459 10.5227L9.0476 10.699C8.9397 10.8927 8.8857 10.9896 8.8015 11.0535C8.7173 11.1174 8.6125 11.1411 8.4028 11.1886L8.2119 11.2318C7.47396 11.3987 7.10501 11.4822 7.01723 11.7645C6.92945 12.0468 7.18097 12.3409 7.68403 12.9291L7.81418 13.0813C7.95713 13.2485 8.0286 13.3321 8.0608 13.4355C8.0929 13.5389 8.0821 13.6504 8.0605 13.8734L8.0408 14.0765C7.96476 14.8613 7.92674 15.2538 8.1565 15.4282C8.3864 15.6027 8.7318 15.4436 9.4227 15.1255L9.6014 15.0432C9.7978 14.9528 9.8959 14.9076 10 14.9076C10.1041 14.9076 10.2022 14.9528 10.3986 15.0432L10.5773 15.1255C11.2682 15.4436 11.6136 15.6027 11.8435 15.4282C12.0733 15.2538 12.0352 14.8613 11.9592 14.0765L11.9395 13.8734C11.9179 13.6504 11.9071 13.5389 11.9392 13.4355C11.9714 13.3321 12.0429 13.2485 12.1858 13.0813L12.316 12.9291C12.819 12.3409 13.0706 12.0468 12.9828 11.7645C12.895 11.4822 12.526 11.3987 11.7881 11.2318L11.5972 11.1886C11.3875 11.1411 11.2827 11.1174 11.1985 11.0535C11.1143 10.9896 11.0603 10.8927 10.9524 10.699Z" fill="#E7A141"/>
</svg>
