<svg width="141" height="46" viewBox="0 0 141 46" fill="none" xmlns="http://www.w3.org/2000/svg">
<path d="M20.3486 5.14948L17.8632 0L6.10352e-05 36.9987H4.98511C6.64172 36.9987 8.14576 36.0232 8.83287 34.503L9.9351 32.0647L12.6163 26.3103L17.8635 14.7982L20.3481 9.65481C21.0347 8.23292 21.035 6.57161 20.3486 5.14948Z" fill="white"/>
<path d="M22.7542 9.7872L20.4458 14.765C19.6683 16.4415 19.6622 18.378 20.4286 20.0593L23.2786 26.3103L25.9584 32.0691L27.4281 35.3154L26.0481 32.2622L26.0532 32.2732L26.0478 32.262L25.7596 31.6241L27.4951 35.4617C27.9184 36.3979 28.8449 36.9987 29.8651 36.9987H35.8912L22.7542 9.7872Z" fill="white"/>
<path d="M9.79511 7.49223C11.8467 7.49223 13.5099 5.81504 13.5099 3.74612C13.5099 1.67719 11.8467 0 9.79511 0C7.74349 0 6.08032 1.67719 6.08032 3.74612C6.08032 5.81504 7.74349 7.49223 9.79511 7.49223Z" fill="white"/>
<path d="M53.4189 18.3327C58.3372 18.3327 62.059 22.0191 62.059 27.7495C62.059 33.4466 58.3038 37.3005 53.4189 37.3005C50.0957 37.3005 47.7363 35.6248 46.6065 33.6141V36.9989H43.5825V12.1999H46.6065V22.0522C47.7694 20.0084 50.1953 18.3327 53.4189 18.3327ZM52.7874 20.98C49.4976 20.98 46.6063 23.527 46.6063 27.783C46.6063 32.1059 49.4974 34.6193 52.7874 34.6193C56.1438 34.6193 58.9684 32.0725 58.9684 27.7493C58.9684 23.4261 56.1438 20.98 52.7874 20.98Z" fill="white"/>
<path d="M78.6076 18.6343H81.7315L70.7649 45.6446H67.6412L71.2303 36.7975L63.886 18.6343H67.2425L72.9584 33.5134L78.6076 18.6343Z" fill="white"/>
<path d="M91.2017 37.3005C86.948 37.3005 83.9573 34.9546 83.7578 31.6034H86.8817C87.0481 33.3796 88.6096 34.72 91.1683 34.72C93.5608 34.72 94.8903 33.5137 94.8903 32.0055C94.8903 27.917 84.1236 30.2964 84.1236 23.46C84.1236 20.645 86.7487 18.3327 90.803 18.3327C94.8241 18.3327 97.4826 20.5111 97.682 24.0968H94.6578C94.5248 22.2536 93.1293 20.9132 90.7034 20.9132C88.4769 20.9132 87.1477 21.9854 87.1477 23.46C87.1477 27.8166 97.7152 25.437 97.8481 32.0055C97.8481 35.0216 95.2228 37.3005 91.2017 37.3005Z" fill="white"/>
<path d="M109.977 37.3005C104.793 37.3005 100.971 33.6141 100.971 27.7832C100.971 21.9857 104.66 18.3327 109.977 18.3327C115.261 18.3327 118.717 22.0861 118.717 27.113C118.717 27.7832 118.684 28.3193 118.617 28.9562H104.062C104.294 32.6759 106.887 34.7203 109.977 34.7203C112.702 34.7203 114.43 33.3128 115.095 31.3355H118.352C117.421 34.6864 114.496 37.3005 109.977 37.3005ZM104.095 26.4761H115.593C115.627 22.8902 112.968 20.9132 109.844 20.9132C106.886 20.9132 104.427 22.8902 104.095 26.4761Z" fill="white"/>
<path d="M130.214 18.3327C133.604 18.3327 135.93 20.0752 136.994 21.9854V18.6343H140.051V36.9987H136.994V33.5802C135.897 35.5575 133.537 37.3003 130.181 37.3003C125.329 37.3003 121.574 33.4464 121.574 27.7493C121.574 22.0191 125.329 18.3327 130.214 18.3327ZM130.812 20.98C127.489 20.98 124.664 23.4263 124.664 27.7495C124.664 32.0728 127.489 34.6196 130.812 34.6196C134.136 34.6196 136.993 32.1062 136.993 27.7832C136.994 23.527 134.136 20.98 130.812 20.98Z" fill="white"/>
</svg>
