<svg width="207" height="68" viewBox="0 0 207 68" fill="none" xmlns="http://www.w3.org/2000/svg">
<path d="M29.9379 7.57621L26.2813 0L0 54.4345H7.33429C9.77158 54.4345 11.9844 52.9994 12.9953 50.7628L14.617 47.1754L18.5618 38.7093L26.2816 21.7719L29.9372 14.2047C30.9474 12.1127 30.9478 9.66853 29.9379 7.57621Z" fill="#274A90"/>
<path d="M33.4772 14.3994L30.0809 21.7231C28.937 24.1895 28.9281 27.0387 30.0557 29.5124L34.2487 38.7092L38.1914 47.1818L40.3537 51.958L38.3233 47.4659L38.3308 47.482L38.323 47.4655L37.899 46.5272L40.4522 52.1732C41.0751 53.5506 42.4381 54.4345 43.9392 54.4345H52.8052L33.4772 14.3994Z" fill="#274A90"/>
<path d="M14.4111 11.023C17.4296 11.023 19.8765 8.55542 19.8765 5.5115C19.8765 2.46758 17.4296 0 14.4111 0C11.3926 0 8.94568 2.46758 8.94568 5.5115C8.94568 8.55542 11.3926 11.023 14.4111 11.023Z" fill="#274A90"/>
<path d="M78.593 26.9721C85.8291 26.9721 91.3048 32.3957 91.3048 40.8267C91.3048 49.2085 85.78 54.8786 78.593 54.8786C73.7038 54.8786 70.2325 52.4132 68.5703 49.455V54.4349H64.1211V17.9492H68.5703V32.4445C70.2812 29.4375 73.8503 26.9721 78.593 26.9721ZM77.6639 30.8669C72.8238 30.8669 68.5699 34.6143 68.5699 40.8758C68.5699 47.236 72.8234 50.9339 77.6639 50.9339C82.6021 50.9339 86.7578 47.1869 86.7578 40.8263C86.7578 34.4658 82.6021 30.8669 77.6639 30.8669Z" fill="#274A90"/>
<path d="M115.652 27.416H120.248L104.113 67.1551H99.5177L104.798 54.1388L93.9929 27.416H98.9312L107.341 49.3071L115.652 27.416Z" fill="#274A90"/>
<path d="M134.181 54.8792C127.923 54.8792 123.523 51.4277 123.229 46.4973H127.825C128.07 49.1105 130.368 51.0826 134.132 51.0826C137.652 51.0826 139.608 49.3078 139.608 47.0888C139.608 41.0737 123.767 44.5743 123.767 34.5162C123.767 30.3746 127.63 26.9727 133.594 26.9727C139.511 26.9727 143.422 30.1777 143.715 35.4532H139.266C139.07 32.7413 137.017 30.7692 133.448 30.7692C130.172 30.7692 128.217 32.3468 128.217 34.5162C128.217 40.9259 143.764 37.425 143.96 47.0888C143.96 51.5264 140.097 54.8792 134.181 54.8792Z" fill="#274A90"/>
<path d="M161.805 54.8792C154.178 54.8792 148.555 49.4556 148.555 40.8768C148.555 32.3471 153.982 26.9727 161.805 26.9727C169.579 26.9727 174.663 32.4949 174.663 39.8907C174.663 40.8768 174.614 41.6656 174.517 42.6025H153.102C153.444 48.0753 157.258 51.083 161.805 51.083C165.814 51.083 168.356 49.0122 169.334 46.1031H174.126C172.756 51.0331 168.454 54.8792 161.805 54.8792ZM153.151 38.9538H170.068C170.117 33.6779 166.205 30.7692 161.61 30.7692C157.258 30.7692 153.64 33.6779 153.151 38.9538Z" fill="#274A90"/>
<path d="M191.579 26.9727C196.566 26.9727 199.988 29.5363 201.553 32.3468V27.4164H206.051V54.4351H201.553V49.4057C199.939 52.3148 196.468 54.8788 191.53 54.8788C184.392 54.8788 178.867 49.2088 178.867 40.8269C178.867 32.3963 184.392 26.9727 191.579 26.9727ZM192.459 30.8675C187.57 30.8675 183.414 34.4667 183.414 40.8273C183.414 47.1878 187.57 50.9349 192.459 50.9349C197.348 50.9349 201.552 47.237 201.552 40.8768C201.553 34.6149 197.348 30.8675 192.459 30.8675Z" fill="#274A90"/>
</svg>
