<svg width="192" height="62" viewBox="0 0 192 62" fill="none" xmlns="http://www.w3.org/2000/svg">
<path d="M76.4894 53.0972C77.6015 52.7466 78.6907 52.2237 79.8215 52.0725C89.8204 50.776 99.8717 49.8305 109.82 48.2097C117.613 46.9382 125.314 44.9907 133.008 43.1038C141.836 40.9385 150.73 38.9495 159.369 36.0876C167.247 33.474 175.213 30.8015 182.217 25.7699C183.082 25.1475 183.933 24.5058 184.758 23.8258C189.243 20.1087 187.8 15.9686 184.171 13.0353C179.488 9.25252 173.922 7.93795 168.339 6.83163C157.726 4.72466 147.022 3.9668 136.274 3.76643C118.003 3.43047 99.8186 4.37897 81.6744 6.54804C65.8175 8.43975 50.2049 11.6127 34.7983 15.9424C26.7823 18.197 18.8684 20.9198 11.6775 25.4953C9.29232 27.0152 7.10413 29.0642 5.17283 31.244C2.78314 33.9473 3.16888 37.1913 5.70753 39.8523C9.94736 44.2978 15.3181 46.3732 20.6148 48.5268C30.4737 52.5325 40.682 55.0525 51.027 56.7552C56.9531 57.7264 62.9427 58.1655 68.8956 58.8876C70.3441 59.064 71.7781 59.395 73.3304 59.6784C66.4819 63.0427 59.4551 61.4456 52.5462 60.6632C42.8088 59.5573 33.2093 57.4602 23.897 53.9481C16.846 51.2899 9.90268 48.3175 3.95733 43.177C-1.78298 38.2108 -0.794016 31.2646 3.82704 26.7169C10.5613 20.0849 18.9844 16.8756 27.5711 14.2443C32.2006 12.8239 36.8374 11.4232 41.5165 10.2136C46.184 9.01144 50.8946 8.01375 55.6073 7.04934C56.7568 6.81005 57.9904 7.04 58.6518 7.04523C60.0864 6.61425 61.0868 6.31749 62.0802 6.00779C63.5917 5.54525 65.3216 5.46999 66.7099 5.36273C68.7618 5.20041 70.7386 3.35856 73.0959 4.77443C73.9846 5.30676 75.593 4.26333 76.8904 4.06153C80.2056 3.53914 83.5297 3.06298 86.8551 2.60679C90.4213 2.12211 93.9885 1.55715 97.5729 1.26515C99.7272 1.08972 101.918 1.50014 104.085 1.42419C105.713 1.3687 107.316 0.813543 108.942 0.738084C111.597 0.611422 114.264 0.771395 116.919 0.658048C118.613 0.585072 120.39 -0.281809 121.96 0.0940821C126.079 1.07179 130.108 0.12364 134.167 0.156011C139.125 0.192128 144.097 0.36101 149.047 0.765176C160.136 1.66593 171.278 2.44307 181.773 7.1975C183.802 8.11935 185.795 9.44444 187.442 11.0386C192.713 16.1546 192.111 23.4641 186.371 27.7747C178.656 33.5661 170.034 37.0952 161.085 39.6558C149.604 42.9435 138.01 45.7838 126.497 48.9532C115.718 51.9228 104.774 53.7131 93.6707 54.3304C88.5451 54.6123 83.3871 54.2813 78.2377 54.1837C77.685 54.1716 77.1381 53.8651 76.5874 53.6925C76.5567 53.494 76.5261 53.2954 76.4954 53.0968L76.4894 53.0972Z" fill="#274A90"/>
</svg>
