<svg width="194" height="64" viewBox="0 0 194 64" fill="none" xmlns="http://www.w3.org/2000/svg">
<path d="M34.2 32C34.2 26.844 38.276 22.668 43.3 22.668C48.328 22.668 52.4 26.84 52.4 32C52.4 37.156 48.328 41.332 43.3 41.332C38.28 41.332 34.2 37.16 34.2 32Z" fill="#1ABCFE"/>
<path d="M16 50.668C16 45.512 20.076 41.332 25.1 41.332H34.2V50.668C34.2 55.82 30.124 60 25.1 60C20.076 60 16 55.82 16 50.668Z" fill="#0ACF83"/>
<path d="M34.2 4V22.668H43.3C48.328 22.668 52.4 18.488 52.4 13.332C52.4 8.18 48.328 4 43.3 4H34.2Z" fill="#FF7262"/>
<path d="M16 13.332C16 18.488 20.076 22.668 25.1 22.668H34.2V4H25.1C20.076 4 16 8.18 16 13.332Z" fill="#F24E1E"/>
<path d="M16 32C16 37.156 20.076 41.332 25.1 41.332H34.2V22.668H25.1C20.076 22.668 16 26.84 16 32Z" fill="#A259FF"/>
<g clip-path="url(#clip0_93_149)">
<path d="M182.157 45.146C180.51 45.146 179.032 44.837 177.722 44.219C176.445 43.6003 175.421 42.7703 174.648 41.729C173.908 40.6557 173.538 39.419 173.539 38.019C173.539 36.197 174.144 34.7163 175.353 33.577C176.562 32.4377 178.293 31.6567 180.544 31.234L186.441 30.063C187.616 29.835 188.423 29.477 188.86 28.989C189.297 28.501 189.515 27.785 189.515 26.841L190.119 32.552L181.653 34.31C180.511 34.5367 179.621 34.9433 178.982 35.53C178.377 36.1167 178.075 36.93 178.075 37.97C178.075 39.044 178.495 39.9067 179.335 40.558C180.208 41.208 181.384 41.5333 182.862 41.534C184.072 41.534 185.181 41.2737 186.189 40.753C187.23 40.233 188.036 39.517 188.608 38.605C189.213 37.661 189.515 36.587 189.515 35.383V26.841C189.515 25.669 189.078 24.7577 188.204 24.107C187.364 23.4237 186.205 23.082 184.727 23.082C182.846 23.082 181.401 23.5377 180.393 24.449C179.385 25.3603 178.797 26.6457 178.629 28.305L174.194 27.72C174.362 25.9947 174.9 24.514 175.807 23.278C176.714 22.0087 177.924 21.032 179.435 20.348C180.947 19.6653 182.745 19.324 184.828 19.324C187.784 19.324 190.052 20.056 191.631 21.52C193.21 22.984 194 24.8717 194 27.183V44.413H189.616V41.241C189.179 42.3143 188.288 43.2417 186.945 44.023C185.634 44.7717 184.038 45.146 182.157 45.146ZM137.807 44.414V20.056H142.191V22.79C142.527 21.846 143.266 21.0323 144.409 20.349C145.552 19.6657 146.878 19.324 148.389 19.324C149.869 19.324 151.23 19.633 152.472 20.251C153.715 20.8697 154.522 21.7973 154.891 23.034C155.328 21.894 156.134 20.999 157.311 20.349C158.52 19.6657 159.863 19.324 161.341 19.324C163.895 19.324 165.844 20.04 167.188 21.472C168.532 22.9033 169.204 24.986 169.204 27.72V44.414H164.718V28.305C164.718 26.6783 164.349 25.4583 163.61 24.645C162.903 23.7983 161.862 23.375 160.485 23.375C158.973 23.375 157.797 23.8957 156.957 24.937C156.15 25.947 155.747 27.4277 155.747 29.379V44.414H151.263V28.305C151.263 26.6783 150.893 25.4583 150.153 24.645C149.448 23.7983 148.407 23.375 147.029 23.375C145.517 23.375 144.341 23.8957 143.501 24.937C142.694 25.947 142.291 27.4277 142.291 29.379V44.414H137.807ZM120.656 53.2C117.531 53.2 114.995 52.5003 113.046 51.101C111.097 49.7017 109.854 47.7493 109.316 45.244L113.701 44.316C114.071 45.9107 114.861 47.1473 116.07 48.026C117.279 48.9373 118.808 49.393 120.656 49.393C122.873 49.393 124.536 48.8397 125.645 47.733C126.787 46.6597 127.358 45.049 127.358 42.901V39.044C126.855 40.2473 125.914 41.224 124.536 41.974C123.192 42.722 121.68 43.096 120.001 43.096C117.783 43.096 115.834 42.608 114.155 41.632C112.475 40.622 111.165 39.2227 110.224 37.434C109.283 35.644 108.813 33.5773 108.813 31.234C108.813 28.8587 109.283 26.776 110.223 24.986C111.164 23.196 112.458 21.813 114.104 20.837C115.784 19.8283 117.75 19.324 120.001 19.324C121.681 19.324 123.21 19.698 124.587 20.446C125.997 21.162 126.954 22.057 127.459 23.131V20.056H131.844V42.9C131.844 45.0467 131.407 46.8853 130.534 48.416C129.661 49.978 128.384 51.1657 126.704 51.979C125.057 52.7923 123.041 53.2 120.656 53.2ZM120.555 39.239C122.705 39.239 124.418 38.5067 125.695 37.042C127.005 35.578 127.66 33.6417 127.661 31.233C127.661 28.793 127.006 26.8407 125.695 25.376C124.384 23.9113 122.671 23.179 120.555 23.179C118.405 23.179 116.675 23.9113 115.364 25.376C114.087 26.8407 113.449 28.793 113.449 31.233C113.449 33.641 114.104 35.5777 115.414 37.043C116.725 38.5063 118.439 39.2383 120.555 39.239ZM99.761 44.414V20.056H104.247V44.414H99.761ZM99.711 16.932V10H104.297V16.932H99.711ZM74 44.414V10H78.737V44.414H74ZM74.958 29.867V25.718H94.259V29.868L74.958 29.867ZM74.958 14.198V10H96.124V14.198H74.958Z" fill="black"/>
</g>
<defs>
<clipPath id="clip0_93_149">
<rect width="120" height="44" fill="white" transform="translate(74 10)"/>
</clipPath>
</defs>
</svg>
