<svg width="194" height="113" viewBox="0 0 194 113" fill="none" xmlns="http://www.w3.org/2000/svg">
<g clip-path="url(#clip0_93_167)">
<path d="M55.3012 41.0395C55.3012 43.3649 55.5541 45.2503 55.9967 46.6329C56.5025 48.0156 57.1348 49.5239 58.02 51.158C58.3361 51.6607 58.4626 52.1635 58.4626 52.6035C58.4626 53.2319 58.0832 53.8604 57.2612 54.4889L53.2779 57.1285C52.7088 57.5056 52.1397 57.6941 51.6339 57.6941C51.0016 57.6941 50.3694 57.3799 49.7371 56.8142C48.8519 55.8715 48.0932 54.866 47.4609 53.8604C46.8286 52.792 46.1963 51.5979 45.5008 50.1524C40.569 55.9344 34.3727 58.8254 26.9118 58.8254C21.6006 58.8254 17.3643 57.317 14.2662 54.3003C11.168 51.2837 9.58728 47.2614 9.58728 42.2336C9.58728 36.8916 11.4841 32.5551 15.341 29.287C19.1979 26.0189 24.3194 24.3849 30.8319 24.3849C32.9817 24.3849 35.1946 24.5734 37.5341 24.8877C39.8735 25.2019 42.2762 25.7047 44.8053 26.2703V21.6824C44.8053 16.906 43.7936 13.5751 41.8336 11.6268C39.8103 9.67853 36.396 8.73582 31.5274 8.73582C29.3144 8.73582 27.0382 8.98721 24.6988 9.55284C22.3593 10.1185 20.0831 10.8098 17.8702 11.6897C16.8585 12.1296 16.0998 12.381 15.6572 12.5067C15.2146 12.6324 14.8984 12.6952 14.6455 12.6952C13.7603 12.6952 13.3177 12.0667 13.3177 10.7469V7.66741C13.3177 6.66185 13.4442 5.90768 13.7603 5.46774C14.0765 5.02781 14.6455 4.58788 15.5307 4.14794C17.7437 3.01669 20.3993 2.07397 23.4974 1.3198C26.5956 0.502781 29.8835 0.125695 33.361 0.125695C40.8852 0.125695 46.386 1.82258 49.9268 5.21635C53.4043 8.61012 55.1747 13.7636 55.1747 20.6769V41.0395H55.3012ZM29.6306 50.5923C31.7171 50.5923 33.8668 50.2152 36.1431 49.4611C38.4193 48.7069 40.4426 47.3243 42.1497 45.4388C43.1614 44.2447 43.9201 42.9249 44.2995 41.4166C44.6788 39.9082 44.9318 38.0857 44.9318 35.9488V33.3092C43.0981 32.8693 41.1381 32.4922 39.1148 32.2408C37.0915 31.9894 35.1314 31.8637 33.1713 31.8637C28.9351 31.8637 25.8369 32.6808 23.7504 34.3776C21.6638 36.0745 20.6522 38.4627 20.6522 41.6051C20.6522 44.559 21.4109 46.7586 22.9916 48.267C24.5091 49.8382 26.7221 50.5923 29.6306 50.5923ZM80.4027 57.3799C79.2646 57.3799 78.5058 57.1913 78 56.7514C77.4942 56.3743 77.0516 55.4944 76.6722 54.3003L61.8136 5.71913C61.4343 4.46218 61.2446 3.64516 61.2446 3.20523C61.2446 2.19967 61.7504 1.63404 62.7621 1.63404H68.9584C70.1597 1.63404 70.9817 1.82258 71.4243 2.26251C71.9301 2.6396 72.3095 3.51947 72.6889 4.71357L83.3112 46.3187L93.1747 4.71357C93.4909 3.45662 93.8702 2.6396 94.3761 2.26251C94.8819 1.88543 95.7671 1.63404 96.9052 1.63404H101.963C103.165 1.63404 103.987 1.82258 104.493 2.26251C104.998 2.6396 105.441 3.51947 105.694 4.71357L115.684 46.8215L126.622 4.71357C127.002 3.45662 127.444 2.6396 127.887 2.26251C128.393 1.88543 129.215 1.63404 130.353 1.63404H136.233C137.245 1.63404 137.814 2.13682 137.814 3.20523C137.814 3.51947 137.751 3.8337 137.687 4.21079C137.624 4.58788 137.498 5.09066 137.245 5.78198L122.007 54.3632C121.627 55.6201 121.185 56.4372 120.679 56.8142C120.173 57.1913 119.351 57.4427 118.276 57.4427H112.839C111.637 57.4427 110.815 57.2542 110.31 56.8142C109.804 56.3743 109.361 55.5573 109.108 54.3003L99.3079 13.7636L89.5707 54.2375C89.2546 55.4944 88.8752 56.3115 88.3694 56.7514C87.8636 57.1913 86.9784 57.3799 85.8403 57.3799H80.4027ZM161.651 59.0768C158.363 59.0768 155.075 58.6997 151.914 57.9455C148.752 57.1913 146.286 56.3743 144.642 55.4316C143.631 54.866 142.935 54.2375 142.682 53.6719C142.429 53.1062 142.303 52.4778 142.303 51.9121V48.7069C142.303 47.3871 142.809 46.7586 143.757 46.7586C144.137 46.7586 144.516 46.8215 144.895 46.9472C145.275 47.0729 145.844 47.3243 146.476 47.5756C148.626 48.5184 150.965 49.2725 153.431 49.7753C155.96 50.2781 158.426 50.5295 160.955 50.5295C164.939 50.5295 168.037 49.8382 170.186 48.4555C172.336 47.0729 173.474 45.0617 173.474 42.485C173.474 40.7253 172.905 39.2798 171.767 38.0857C170.629 36.8916 168.479 35.8231 165.381 34.8176L156.213 31.9894C151.597 30.5439 148.183 28.4071 146.097 25.579C144.01 22.8137 142.935 19.7341 142.935 16.4661C142.935 13.8265 143.504 11.5011 144.642 9.48999C145.78 7.47887 147.298 5.71913 149.195 4.33649C151.092 2.89099 153.241 1.82258 155.77 1.06841C158.3 0.314238 160.955 0 163.737 0C165.128 0 166.582 0.0628476 167.974 0.25139C169.428 0.439933 170.756 0.691324 172.083 0.942714C173.348 1.25695 174.549 1.57119 175.687 1.94828C176.825 2.32536 177.711 2.70245 178.343 3.07953C179.228 3.58231 179.86 4.08509 180.24 4.65072C180.619 5.1535 180.809 5.84483 180.809 6.72469V9.67853C180.809 10.9983 180.303 11.6897 179.355 11.6897C178.849 11.6897 178.027 11.4383 176.952 10.9355C173.348 9.30145 169.301 8.48443 164.812 8.48443C161.208 8.48443 158.363 9.05006 156.403 10.2442C154.443 11.4383 153.431 13.2608 153.431 15.8376C153.431 17.5973 154.063 19.1057 155.328 20.2998C156.592 21.4939 158.932 22.688 162.283 23.7564L171.261 26.5845C175.814 28.03 179.102 30.0412 181.062 32.6179C183.022 35.1947 183.97 38.1485 183.97 41.4166C183.97 44.119 183.401 46.5701 182.326 48.7069C181.188 50.8437 179.671 52.7291 177.711 54.2375C175.751 55.8087 173.411 56.9399 170.692 57.757C167.847 58.6368 164.875 59.0768 161.651 59.0768Z" fill="#252F3E"/>
<path fill-rule="evenodd" clip-rule="evenodd" d="M173.601 89.621C152.799 104.893 122.576 113 96.589 113C60.1696 113 27.3543 99.6138 2.56889 77.3657C0.608824 75.606 2.37921 73.2178 4.71865 74.6004C31.5273 90.061 64.5956 99.4252 98.8019 99.4252C121.88 99.4252 147.235 94.6488 170.566 84.8446C174.043 83.2734 177.015 87.1071 173.601 89.621Z" fill="#FF9900"/>
<path fill-rule="evenodd" clip-rule="evenodd" d="M182.263 79.8164C179.607 76.4227 164.685 78.1824 157.92 78.9994C155.897 79.2508 155.58 77.4911 157.414 76.1713C169.301 67.8754 188.838 70.2636 191.115 73.0289C193.391 75.857 190.482 95.2769 179.354 104.578C177.647 106.024 176.003 105.27 176.762 103.384C179.291 97.1624 184.918 83.1474 182.263 79.8164Z" fill="#FF9900"/>
</g>
<defs>
<clipPath id="clip0_93_167">
<rect width="194" height="113" fill="white"/>
</clipPath>
</defs>
</svg>
