<svg width="227" height="61" viewBox="0 0 227 61" fill="none" xmlns="http://www.w3.org/2000/svg">
<g clip-path="url(#clip0_93_118)">
<path d="M25.0092 0.0224609H0V60.9784L25.0092 0.0224609Z" fill="#FA0C00"/>
<path d="M42.6052 0.0224609H67.5819V60.9784L42.6052 0.0224609Z" fill="#FA0C00"/>
<path d="M33.8074 22.4883L49.7253 60.9781H39.2817L34.5242 48.7238H22.875L33.8074 22.4883Z" fill="#FA0C00"/>
<path d="M108.383 38.787L111.331 47.4049C111.429 47.6207 111.576 47.7204 111.837 47.7204H117.506C117.816 47.7204 117.865 47.5709 117.816 47.2554L106.102 14.0958C106.053 13.8301 106.004 13.7803 105.743 13.7803H98.7047C98.5092 13.7803 98.3951 13.9297 98.3951 14.1456C98.2973 15.8891 98.1507 16.4204 97.9389 16.9352L87.4953 47.2056C87.4464 47.5709 87.5605 47.7204 87.8538 47.7204H92.9208C93.2303 47.7204 93.377 47.6207 93.491 47.3052L96.2771 38.787H108.383ZM97.89 33.158C99.4216 28.4423 101.442 22.3981 102.256 18.9443H102.305C103.316 22.5642 105.694 29.7374 106.77 33.158H97.89Z" fill="#FA0C00"/>
<path d="M132.876 48.2347C135.922 48.2347 139.165 47.6701 142.456 46.2255C142.716 46.1259 142.765 46.0096 142.765 45.7606C142.668 44.8307 142.554 43.4857 142.554 42.4562V11.2393C142.554 11.0401 142.554 10.9404 142.309 10.9404H136.786C136.574 10.9404 136.476 11.0401 136.476 11.3057V21.883C135.613 21.7833 135.01 21.7335 134.293 21.7335C125.381 21.7335 119.907 27.7278 119.907 35.2166C119.907 43.9008 125.528 48.2347 132.876 48.2347ZM136.476 42.4562C135.564 42.7551 134.554 42.8713 133.527 42.8713C129.487 42.8713 126.179 40.5467 126.179 34.9011C126.179 29.903 129.585 26.9474 134.098 26.9474C135.01 26.9474 135.808 27.047 136.476 27.3127V42.4562Z" fill="#FA0C00"/>
<path d="M160.385 21.7334C152.777 21.7334 148.068 27.6779 148.068 35.0172C148.068 41.5761 151.816 48.2346 160.271 48.2346C167.424 48.2346 172.442 42.8712 172.442 34.8511C172.442 27.7775 168.19 21.7334 160.385 21.7334ZM160.076 26.9473C164.377 26.9473 166.202 30.7166 166.202 35.0172C166.202 40.3307 163.514 42.9708 160.385 42.9708C156.524 42.9708 154.243 39.6665 154.243 34.901C154.243 30.0026 156.671 26.9473 160.076 26.9473Z" fill="#FA0C00"/>
<path d="M178.152 10.9404C177.94 10.9404 177.794 11.0401 177.794 11.3057V46.6406C177.794 46.7901 177.94 47.0557 178.152 47.1055C180.58 47.8694 183.122 48.2347 185.745 48.2347C193.256 48.2347 200.555 43.4857 200.555 33.9214C200.555 26.9972 195.895 21.7335 188.596 21.7335C186.918 21.7335 185.354 21.9992 183.985 22.4641L183.92 11.3555C183.92 10.9902 183.822 10.9404 183.464 10.9404H178.152ZM194.315 34.5524C194.315 40.281 190.47 42.971 186.315 42.971C185.451 42.971 184.686 42.9211 183.985 42.7053V27.6282C184.783 27.3127 185.745 27.047 187.521 27.047C191.529 27.047 194.315 29.6374 194.315 34.5524Z" fill="#FA0C00"/>
<path d="M221.167 36.412C223.644 36.412 225.68 36.3622 226.381 36.1961C226.641 36.1463 226.739 36.0467 226.788 35.8308C226.935 35.2663 227 34.0873 227 32.6427C227 27.7277 224.1 21.7334 216.605 21.7334C208.948 21.7334 204.695 28.093 204.695 35.2663C204.695 41.6259 207.986 48.2346 217.208 48.2346C220.662 48.2346 222.894 47.67 224.817 46.7401C225.012 46.6405 225.11 46.4744 225.11 46.1756V41.8749C225.11 41.6259 224.963 41.5761 224.817 41.6757C222.894 42.5059 220.809 42.921 218.528 42.921C213.363 42.921 211.017 40.0152 210.87 36.412H221.167ZM210.87 31.9619C211.278 29.438 212.842 26.6982 216.345 26.6982C220.206 26.6982 221.216 30.0026 221.216 31.497C221.216 31.5468 221.216 31.7627 221.216 31.9121C221.004 31.9619 220.353 31.9619 218.43 31.9619H210.87Z" fill="#FA0C00"/>
</g>
<defs>
<clipPath id="clip0_93_118">
<rect width="227" height="61" fill="white"/>
</clipPath>
</defs>
</svg>
