<svg width="244" height="52" viewBox="0 0 244 52" fill="none" xmlns="http://www.w3.org/2000/svg">
<g clip-path="url(#clip0_93_160)">
<path d="M86.1433 29.9504L84.6889 34.062H84.5677C84.3253 33.1349 83.8808 31.724 83.1536 30.031L75.356 10.4806H67.7201V41.6403H72.7703V22.4124C72.7703 21.2031 72.7703 19.8325 72.7299 18.1395C72.6895 17.293 72.6087 16.648 72.5683 16.1643H72.6895C72.9319 17.3736 73.2147 18.2604 73.4168 18.8248L82.79 41.5597H86.3453L95.6378 18.6232C95.8398 18.0992 96.0418 17.0511 96.2438 16.1643H96.365C96.2438 18.462 96.163 20.5178 96.1226 21.7674V41.5194H101.496V10.4H94.1429L86.1433 29.9504ZM106.587 19.1876H111.839V41.5194H106.587V19.1876ZM109.253 9.75501C108.364 9.75501 107.637 10.0775 107.031 10.6418C106.425 11.2062 106.102 11.9318 106.102 12.8186C106.102 13.6651 106.425 14.3907 107.031 14.955C107.637 15.5193 108.364 15.8015 109.253 15.8015C110.142 15.8015 110.91 15.479 111.475 14.955C112.081 14.3907 112.405 13.6651 112.405 12.8186C112.405 11.9721 112.081 11.2465 111.475 10.6418C110.95 10.0775 110.182 9.75501 109.253 9.75501ZM130.464 18.986C129.495 18.7845 128.484 18.6635 127.515 18.6635C125.131 18.6635 122.949 19.1876 121.131 20.2356C119.313 21.2837 117.859 22.7349 116.93 24.5488C115.96 26.4031 115.475 28.5395 115.475 30.9984C115.475 33.1349 115.96 35.0294 116.889 36.7628C117.818 38.4558 119.111 39.8263 120.849 40.7535C122.505 41.6806 124.444 42.1643 126.626 42.1643C129.131 42.1643 131.272 41.6403 132.969 40.6728L133.01 40.6325V35.7953L132.807 35.9566C132.04 36.5209 131.151 37.0046 130.262 37.2868C129.333 37.6093 128.484 37.7705 127.757 37.7705C125.656 37.7705 124 37.1659 122.828 35.8356C121.616 34.5457 121.01 32.7721 121.01 30.555C121.01 28.2573 121.616 26.4434 122.869 25.1131C124.121 23.7829 125.778 23.0976 127.798 23.0976C129.495 23.0976 131.232 23.662 132.807 24.7907L133.01 24.9519V19.8325L132.969 19.7922C132.282 19.51 131.515 19.1876 130.464 18.986ZM147.797 18.8248C146.504 18.8248 145.292 19.2279 144.241 20.0744C143.352 20.8 142.746 21.848 142.221 23.0976H142.181V19.1876H136.928V41.5194H142.181V30.1116C142.181 28.1767 142.585 26.5643 143.474 25.3953C144.362 24.186 145.494 23.5814 146.867 23.5814C147.352 23.5814 147.837 23.7023 148.443 23.7829C149.009 23.9442 149.413 24.1054 149.695 24.3069L149.897 24.4682V19.2279L149.776 19.1876C149.413 18.9457 148.685 18.8248 147.797 18.8248ZM162.099 18.7038C158.422 18.7038 155.473 19.7922 153.412 21.9287C151.312 24.0651 150.301 27.0077 150.301 30.7162C150.301 34.1829 151.352 37.0046 153.372 39.0604C155.392 41.0759 158.139 42.124 161.574 42.124C165.169 42.124 168.038 41.0356 170.098 38.8589C172.199 36.6821 173.209 33.7798 173.209 30.1922C173.209 26.6449 172.24 23.8232 170.26 21.7674C168.361 19.7116 165.573 18.7038 162.099 18.7038ZM166.301 35.8759C165.331 37.1256 163.796 37.7302 161.897 37.7302C159.998 37.7302 158.463 37.1256 157.372 35.7953C156.281 34.5457 155.756 32.7318 155.756 30.4341C155.756 28.0558 156.321 26.2418 157.372 24.9519C158.463 23.662 159.958 23.017 161.856 23.017C163.715 23.017 165.169 23.6217 166.22 24.8713C167.27 26.1209 167.836 27.9349 167.836 30.3131C167.755 32.7318 167.311 34.6263 166.301 35.8759ZM184.926 28.4589C183.269 27.7736 182.219 27.2496 181.734 26.8062C181.33 26.4031 181.128 25.8387 181.128 25.1131C181.128 24.5085 181.371 23.9038 181.977 23.5007C182.583 23.0976 183.269 22.8961 184.279 22.8961C185.168 22.8961 186.098 23.0573 186.986 23.2992C187.875 23.5411 188.683 23.9038 189.33 24.3876L189.532 24.5488V19.631L189.41 19.5907C188.804 19.3488 187.996 19.1069 187.027 18.9054C186.057 18.7442 185.168 18.6635 184.441 18.6635C181.936 18.6635 179.876 19.2682 178.26 20.5984C176.644 21.848 175.876 23.5411 175.876 25.5162C175.876 26.5643 176.037 27.4914 176.401 28.2573C176.765 29.0232 177.29 29.7488 178.017 30.3535C178.744 30.9178 179.795 31.5628 181.249 32.1674C182.461 32.6914 183.391 33.0945 183.956 33.417C184.522 33.7395 184.885 34.1023 185.168 34.3845C185.37 34.7069 185.492 35.11 185.492 35.6341C185.492 37.1256 184.36 37.8511 182.057 37.8511C181.169 37.8511 180.239 37.6899 179.148 37.3271C178.058 36.9643 177.048 36.4403 176.199 35.8356L175.997 35.6744V40.7938L176.118 40.8341C176.886 41.1969 177.815 41.4387 178.946 41.7209C180.078 41.9225 181.088 42.0837 181.977 42.0837C184.683 42.0837 186.906 41.479 188.481 40.1488C190.097 38.8589 190.946 37.2062 190.946 35.0697C190.946 33.5783 190.542 32.248 189.653 31.2403C188.481 30.2728 187.027 29.2651 184.926 28.4589ZM204.804 18.7038C201.127 18.7038 198.178 19.7922 196.117 21.9287C194.057 24.0651 193.006 27.0077 193.006 30.7162C193.006 34.1829 194.057 37.0046 196.077 39.0604C198.097 41.0759 200.844 42.124 204.278 42.124C207.874 42.124 210.743 41.0356 212.803 38.8589C214.904 36.6821 215.914 33.7798 215.914 30.1922C215.914 26.6449 214.944 23.8232 212.965 21.7674C211.066 19.7116 208.278 18.7038 204.804 18.7038ZM208.965 35.8759C207.995 37.1256 206.46 37.7302 204.561 37.7302C202.622 37.7302 201.127 37.1256 200.036 35.7953C198.945 34.5457 198.42 32.7318 198.42 30.4341C198.42 28.0558 198.986 26.2418 200.036 24.9519C201.127 23.662 202.622 23.017 204.521 23.017C206.339 23.017 207.834 23.6217 208.884 24.8713C209.935 26.1209 210.5 27.9349 210.5 30.3131C210.5 32.7318 209.975 34.6263 208.965 35.8759ZM243.993 23.5007V19.1876H238.701V12.5767L238.539 12.617L233.529 14.1085L233.408 14.1488V19.1876H225.489V16.3659C225.489 15.0759 225.813 14.0682 226.378 13.4232C226.944 12.7783 227.792 12.4558 228.843 12.4558C229.57 12.4558 230.338 12.617 231.186 12.9798L231.388 13.1007V8.54571L231.267 8.5054C230.54 8.26354 229.57 8.10229 228.317 8.10229C226.742 8.10229 225.368 8.46509 224.116 9.06974C222.863 9.75501 221.934 10.6821 221.247 11.9318C220.56 13.1411 220.197 14.5116 220.197 16.0837V19.1876H216.52V23.4604H220.197V41.5194H225.489V23.5007H233.408V34.9891C233.408 39.7054 235.63 42.0837 240.074 42.0837C240.802 42.0837 241.569 41.9628 242.297 41.8418C243.064 41.6806 243.63 41.479 243.953 41.3178L243.993 41.2775V36.9643L243.791 37.1256C243.468 37.3271 243.185 37.4883 242.701 37.6093C242.297 37.7302 241.933 37.7705 241.65 37.7705C240.6 37.7705 239.872 37.5287 239.347 36.924C238.862 36.3597 238.62 35.4325 238.62 34.062V23.5007H243.993Z" fill="#737373"/>
<path d="M0.0065918 0H24.7729V24.7101H0.0065918V0Z" fill="#F25022"/>
<path d="M27.3586 0H52.125V24.7101H27.3586V0Z" fill="#7FBA00"/>
<path d="M0.0065918 27.29H24.7729V52.0001H0.0065918V27.29Z" fill="#00A4EF"/>
<path d="M27.3586 27.29H52.125V52.0001H27.3586V27.29Z" fill="#FFB900"/>
</g>
<defs>
<clipPath id="clip0_93_160">
<rect width="244" height="52" fill="white"/>
</clipPath>
</defs>
</svg>
