<svg width="247" height="49" viewBox="0 0 247 49" fill="none" xmlns="http://www.w3.org/2000/svg">
<path fill-rule="evenodd" clip-rule="evenodd" d="M104.708 28.8772C105.231 27.5524 105.493 26.015 105.493 24.2675C105.493 22.5192 105.226 20.9822 104.693 19.6569C104.16 18.3309 103.429 17.216 102.501 16.3127C101.573 15.4092 100.487 14.732 99.2436 14.2801C97.9992 13.8277 96.6764 13.6016 95.2749 13.6016C93.9123 13.6016 92.6136 13.8277 91.3802 14.2801C90.1456 14.732 89.0592 15.4092 88.1221 16.3127C87.1841 17.216 86.4382 18.3309 85.8857 19.6569C85.3328 20.9822 85.0562 22.5192 85.0562 24.2675C85.0562 26.015 85.3232 27.5524 85.8563 28.8772C86.3896 30.2034 87.1194 31.3132 88.048 32.2062C88.9756 33.1007 90.062 33.7729 91.3061 34.2244C92.5501 34.6767 93.8726 34.9025 95.2749 34.9025C96.7157 34.9025 98.0638 34.6767 99.3173 34.2244C100.571 33.7729 101.652 33.1007 102.561 32.2062C103.468 31.3132 104.185 30.2034 104.708 28.8772ZM90.195 26.9774C89.9482 26.172 89.825 25.2685 89.825 24.2675C89.825 23.2854 89.9482 22.3869 90.195 21.5712C90.4418 20.7564 90.7974 20.0594 91.2617 19.4802C91.7248 18.9005 92.293 18.4487 92.9648 18.1244C93.6356 17.8007 94.4056 17.6387 95.2749 17.6387C96.1235 17.6387 96.8888 17.7957 97.5705 18.11C98.2509 18.4235 98.8242 18.8709 99.2876 19.45C99.7514 20.0302 100.108 20.7267 100.354 21.5415C100.601 22.3569 100.725 23.2652 100.725 24.2675C100.725 25.2685 100.601 26.172 100.354 26.9774C100.108 27.783 99.7514 28.4752 99.2876 29.0544C98.8242 29.6344 98.2509 30.0805 97.5705 30.3945C96.8888 30.7097 96.1235 30.867 95.2749 30.867C94.4056 30.867 93.6356 30.7097 92.9648 30.3945C92.293 30.0805 91.7248 29.6344 91.2617 29.0544C90.7974 28.4752 90.4418 27.783 90.195 26.9774Z" fill="#1D1E20"/>
<path d="M117.111 30.9844C117.763 30.9844 118.301 30.9309 118.725 30.822C119.15 30.7145 119.491 30.5675 119.747 30.3797C120.003 30.1939 120.182 29.973 120.281 29.7177C120.379 29.4627 120.429 29.1775 120.429 28.8632C120.429 28.1959 120.112 27.6402 119.481 27.1989C118.849 26.7565 117.763 26.2807 116.223 25.769C115.551 25.5342 114.88 25.2635 114.209 24.9595C113.537 24.6555 112.935 24.2724 112.402 23.8105C111.869 23.3492 111.435 22.7894 111.099 22.1307C110.763 21.4732 110.596 20.6732 110.596 19.7302C110.596 18.7872 110.773 17.9379 111.129 17.1819C111.484 16.4255 111.988 15.7829 112.639 15.2518C113.291 14.7213 114.08 14.3147 115.008 14.0292C115.936 13.7449 116.983 13.6016 118.148 13.6016C119.53 13.6016 120.725 13.7499 121.732 14.044C122.738 14.3385 123.568 14.6632 124.22 15.0166L122.887 18.6402C122.314 18.3457 121.677 18.0852 120.977 17.859C120.275 17.6337 119.431 17.52 118.445 17.52C117.338 17.52 116.544 17.6734 116.06 17.9774C115.576 18.2817 115.334 18.7485 115.334 19.3764C115.334 19.75 115.423 20.0647 115.601 20.3194C115.778 20.5747 116.03 20.8054 116.356 21.0119C116.682 21.2177 117.057 21.4049 117.482 21.5712C117.906 21.7385 118.375 21.9099 118.889 22.0865C119.955 22.48 120.883 22.8677 121.673 23.2507C122.462 23.6339 123.119 24.0809 123.643 24.5912C124.165 25.1017 124.555 25.701 124.813 26.3887C125.068 27.0765 125.197 27.9109 125.197 28.892C125.197 30.7974 124.526 32.2755 123.183 33.3259C121.84 34.3772 119.816 34.9029 117.111 34.9029C116.203 34.9029 115.383 34.8485 114.653 34.7405C113.922 34.6319 113.276 34.4995 112.713 34.3427C112.151 34.1857 111.667 34.0189 111.261 33.8422C110.857 33.665 110.516 33.4985 110.24 33.3407L111.544 29.688C112.155 30.0225 112.91 30.3215 113.809 30.586C114.707 30.8517 115.808 30.9844 117.111 30.9844Z" fill="#1D1E20"/>
<path d="M145.553 14.0732V17.9918H139.362V34.4893H134.742V17.9918H128.551V14.0732H145.553Z" fill="#1D1E20"/>
<path d="M150.685 34.4898H155.305V14.0732H150.685V34.4898Z" fill="#1D1E20"/>
<path d="M175.987 34.4893C174.665 32.1523 173.234 29.845 171.694 27.566C170.152 25.2875 168.514 23.1371 166.777 21.114V34.4893H162.215V14.0732H165.977C166.628 14.7208 167.349 15.5163 168.139 16.4593C168.929 17.4023 169.732 18.4091 170.553 19.4793C171.372 20.5496 172.186 21.6593 172.996 22.808C173.806 23.9568 174.565 25.0613 175.277 26.1221V14.0732H179.868V34.4893H175.987Z" fill="#1D1E20"/>
<path d="M196.787 17.6095C194.636 17.6095 193.081 18.2035 192.122 19.3916C191.164 20.5801 190.687 22.2048 190.687 24.2678C190.687 25.2685 190.805 26.1776 191.041 26.9925C191.279 27.807 191.635 28.509 192.107 29.0985C192.581 29.688 193.173 30.1448 193.885 30.469C194.596 30.7928 195.424 30.9548 196.372 30.9548C196.885 30.9548 197.325 30.9448 197.691 30.9255C198.056 30.9061 198.376 30.867 198.653 30.8076V23.708H203.274V33.8128C202.721 34.0291 201.833 34.2595 200.608 34.5045C199.384 34.7496 197.874 34.8733 196.077 34.8733C194.537 34.8733 193.14 34.6371 191.886 34.1663C190.631 33.6943 189.56 33.0075 188.672 32.1036C187.785 31.2006 187.098 30.0905 186.614 28.7746C186.13 27.4596 185.889 25.957 185.889 24.2678C185.889 22.5586 186.155 21.0465 186.688 19.7301C187.221 18.4148 187.95 17.2993 188.88 16.3863C189.808 15.4731 190.898 14.781 192.153 14.3097C193.406 13.838 194.744 13.6016 196.165 13.6016C197.133 13.6016 198.007 13.6662 198.786 13.7935C199.566 13.9216 200.237 14.0687 200.801 14.236C201.363 14.4024 201.828 14.5742 202.193 14.7513C202.559 14.9281 202.818 15.0661 202.977 15.1641L201.644 18.8461C201.013 18.5125 200.286 18.2233 199.468 17.9773C198.648 17.7318 197.756 17.6095 196.787 17.6095Z" fill="#1D1E20"/>
<path d="M209.739 34.4893V14.0732H223.6V17.9325H214.36V21.9386H222.564V25.7101H214.36V30.6301H224.281V34.4893H209.739Z" fill="#1D1E20"/>
<path fill-rule="evenodd" clip-rule="evenodd" d="M242.949 15.4719C241.311 14.3815 238.951 13.8369 235.87 13.8369C235.021 13.8369 234.058 13.876 232.983 13.9551C231.907 14.033 230.864 14.1714 229.859 14.3667V34.489H234.478V27.0347H236.759C237.156 27.5069 237.552 28.032 237.948 28.612C238.345 29.1912 238.748 29.8042 239.153 30.4527C239.56 31.101 239.954 31.7692 240.342 32.4564C240.727 33.144 241.11 33.8212 241.486 34.489H246.65C246.296 33.743 245.911 32.982 245.496 32.2055C245.081 31.4302 244.653 30.6842 244.207 29.9674C243.764 29.2505 243.313 28.563 242.859 27.9047C242.406 27.2469 241.972 26.6627 241.557 26.1515C242.802 25.6415 243.754 24.9387 244.415 24.0455C245.078 23.152 245.407 21.9874 245.407 20.5542C245.407 18.2559 244.587 16.562 242.949 15.4719ZM235.234 17.7847C235.5 17.7654 235.801 17.7554 236.137 17.7554C237.618 17.7554 238.738 17.9667 239.499 18.3882C240.26 18.8117 240.639 19.5227 240.639 20.5245C240.639 21.566 240.265 22.303 239.514 22.7344C238.763 23.1669 237.52 23.3819 235.782 23.3819H234.478V17.8435C234.716 17.8247 234.967 17.8049 235.234 17.7847Z" fill="#1D1E20"/>
<path d="M74.2354 14.2383H78.8837V34.5825H74.2354V25.9517H66.4292V34.5825H61.7808V14.2383H66.4292V22.0173H74.2354V14.2383Z" fill="#1D1E20"/>
<path fill-rule="evenodd" clip-rule="evenodd" d="M30.0595 0V14.549L41.9576 21.4233V5.99138L30.0595 0ZM0.000413148 0.000715057V22.8315H38.6964L26.923 16.4387L11.586 16.4313V6.14496L0.000413148 0.000715057ZM30.0595 42.4538V32.2562L14.6042 32.2455C14.6186 32.3135 2.63528 25.7507 2.63528 25.7507L41.9574 25.9342V48.7645L30.0595 42.4538ZM0.000412203 27.5345L0 42.4538L11.586 48.4448V34.2462L0.000412203 27.5345Z" fill="#1D1E20"/>
</svg>
