<svg width="218" height="48" viewBox="0 0 218 48" fill="none" xmlns="http://www.w3.org/2000/svg">
<path d="M0 30.0057C0 27.5054 0.412156 25.1725 1.23647 23.0069C2.06078 20.8417 3.21465 18.955 4.6985 17.3477C6.18234 15.7404 7.95743 14.479 10.0237 13.564C12.0901 12.6485 14.3539 12.1906 16.8158 12.1906C18.6846 12.1906 20.3826 12.4699 21.9103 13.0278C23.438 13.586 24.9163 14.5015 26.3448 15.7737V12.8604H34.7199V47.1514H26.3448V44.2377C24.9163 45.5103 23.438 46.4258 21.9103 46.9836C20.3826 47.5419 18.6846 47.8208 16.8158 47.8208C14.3539 47.8208 12.0896 47.3633 10.0237 46.4478C7.95743 45.5328 6.18234 44.2714 4.6985 42.6641C3.21465 41.0563 2.06078 39.1701 1.23647 37.0045C0.412156 34.8393 0 32.5064 0 30.0057ZM17.9041 39.8174C18.5636 39.8174 19.256 39.7452 19.9815 39.5999C20.7066 39.4546 21.4377 39.209 22.1743 38.8631C22.9104 38.5171 23.6304 38.054 24.3338 37.4733C25.0372 36.8929 25.7074 36.1786 26.3448 35.3301V24.6812C25.7074 23.8332 25.0372 23.1245 24.3338 22.555C23.63 21.9859 22.9104 21.5223 22.1738 21.1652C21.4372 20.808 20.7066 20.5567 19.9811 20.4119C19.256 20.2666 18.5632 20.1944 17.9041 20.1939C16.6072 20.1939 15.3924 20.4395 14.2607 20.9308C13.1281 21.422 12.1446 22.1087 11.3096 22.9904C10.4742 23.8721 9.82022 24.9104 9.3476 26.1048C8.87498 27.2991 8.63868 28.5994 8.63868 30.0057C8.63868 31.4124 8.87498 32.7127 9.3476 33.907C9.82022 35.1014 10.4742 36.1396 11.3096 37.0214C12.145 37.9035 13.1285 38.5898 14.2603 39.081C15.3928 39.5718 16.6072 39.8174 17.9041 39.8174ZM55.6556 20.6558C51.6873 20.6852 48.2397 23.4938 48.2397 27.6619V47.1514H39.8646V27.8963C39.9115 19.867 46.758 12.2987 55.5355 12.1906H55.7697C64.5472 12.2987 71.3937 19.867 71.4406 27.8963V47.1514H63.0654V27.6619C63.0654 23.4938 59.6183 20.6852 55.6496 20.6558M75.405 30.0057C75.405 27.5054 75.8172 25.1725 76.6415 23.0069C77.4658 20.8417 78.6201 18.955 80.1035 17.3477C81.5874 15.7404 83.3624 14.479 85.4288 13.564C87.4951 12.6485 89.7589 12.1906 92.2212 12.1906C94.0896 12.1906 95.7931 12.4699 97.3319 13.0278C98.8707 13.586 100.343 14.4902 101.75 15.7404V2.57992H110.125V47.1514H101.75V44.2714C100.343 45.5436 98.8707 46.4534 97.3319 47.0005C95.7931 47.5475 94.0896 47.8208 92.2212 47.8208C89.7589 47.8208 87.4951 47.3633 85.4288 46.4478C83.3624 45.5328 81.5874 44.2714 80.1035 42.6641C78.6201 41.0568 77.4658 39.1701 76.6419 37.0045C75.8172 34.8393 75.405 32.5064 75.405 30.0057ZM93.3091 39.8174C93.9687 39.8174 94.661 39.7452 95.3865 39.5999C96.1116 39.4546 96.8427 39.209 97.5793 38.8631C98.3155 38.5171 99.0355 38.054 99.7388 37.4733C100.442 36.8929 101.112 36.1786 101.75 35.3301V24.6812C101.112 23.8332 100.442 23.1245 99.7388 22.555C99.0355 21.9859 98.3155 21.5223 97.5793 21.1652C96.8427 20.808 96.1116 20.5567 95.3865 20.4119C94.661 20.2666 93.9687 20.1944 93.3091 20.1939C92.0122 20.1939 90.7979 20.4395 89.6657 20.9308C88.5336 21.422 87.5496 22.1087 86.715 22.9904C85.8792 23.8721 85.2252 24.9104 84.7526 26.1048C84.28 27.2991 84.0437 28.5994 84.0441 30.0057C84.0441 31.4124 84.28 32.7127 84.7526 33.907C85.2252 35.1014 85.8792 36.1396 86.7146 37.0214C87.55 37.9035 88.5336 38.5898 89.6657 39.081C90.7979 39.5718 92.0122 39.8174 93.3091 39.8174ZM149.345 39.8174C150.598 39.8174 151.78 39.5774 152.89 39.0974C153.982 38.6296 154.97 37.9402 155.791 37.0715C156.616 36.201 157.264 35.1684 157.737 33.9741C158.209 32.7797 158.446 31.4573 158.446 30.0057C158.446 28.5769 158.204 27.2654 157.72 26.071C157.236 24.8767 156.577 23.844 155.742 22.9736C154.914 22.1082 153.929 21.4144 152.84 20.9308C151.741 20.4395 150.576 20.1944 149.345 20.1939C148.092 20.1939 146.911 20.4395 145.8 20.9308C144.709 21.4089 143.723 22.1034 142.899 22.9736C142.075 23.844 141.421 24.8767 140.937 26.071C140.453 27.2654 140.211 28.5769 140.211 30.0061C140.211 31.4569 140.448 32.7797 140.92 33.9741C141.393 35.1684 142.041 36.201 142.866 37.0715C143.688 37.9402 144.675 38.6295 145.768 39.0974C146.878 39.5774 148.07 39.8174 149.345 39.8174ZM149.345 47.8208C146.905 47.8208 144.608 47.3745 142.454 46.4816C140.299 45.5886 138.415 44.3441 136.799 42.7476C135.183 41.1515 133.908 39.2648 132.974 37.0884C132.04 34.9116 131.573 32.5509 131.573 30.0057C131.573 27.5279 132.04 25.2057 132.974 23.0406C133.909 20.875 135.178 18.9888 136.783 17.3814C138.387 15.7737 140.272 14.5071 142.437 13.5804C144.603 12.6541 146.905 12.1906 149.345 12.1906C151.785 12.1906 154.082 12.6541 156.236 13.5804C158.391 14.5071 160.27 15.7737 161.874 17.3814C163.48 18.9888 164.748 20.8754 165.683 23.0406C166.617 25.2062 167.084 27.5279 167.084 30.0057C167.084 32.5509 166.617 34.9116 165.683 37.0884C164.749 39.2648 163.474 41.1515 161.858 42.7476C160.242 44.3441 158.363 45.5886 156.22 46.4816C154.077 47.3745 151.785 47.8208 149.345 47.8208ZM175.024 10.1755C174.346 10.1755 173.704 10.041 173.1 9.7716C172.507 9.51002 171.967 9.13742 171.51 8.67323C171.053 8.20854 170.686 7.66064 170.428 7.05812C170.163 6.44199 170.027 5.77614 170.031 5.10356C170.031 4.4147 170.163 3.75784 170.428 3.13342C170.683 2.52462 171.05 1.97096 171.51 1.50231C171.967 1.03814 172.507 0.665538 173.1 0.403948C173.707 0.134249 174.362 -0.00333679 175.025 6.14485e-05C175.703 6.14485e-05 176.35 0.134546 176.964 0.403948C177.564 0.662666 178.109 1.03549 178.571 1.50231C179.03 1.97097 179.397 2.52463 179.652 3.13342C179.917 3.75784 180.05 4.4147 180.05 5.10399C180.05 5.79284 179.917 6.44451 179.652 7.05855C179.394 7.66091 179.028 8.20866 178.571 8.67323C178.109 9.14011 177.564 9.51294 176.964 9.7716C176.352 10.0404 175.691 10.1779 175.024 10.1755ZM170.836 12.8604H179.211V47.1514H170.836V12.8604ZM183.062 30.0057C183.062 27.5054 183.474 25.1725 184.299 23.0069C185.123 20.8417 186.277 18.955 187.761 17.3477C189.244 15.7404 191.02 14.479 193.086 13.564C195.152 12.6485 197.416 12.1906 199.878 12.1906C201.746 12.1906 203.45 12.4699 204.989 13.0278C206.527 13.586 208 14.4902 209.407 15.7404V2.57992H217.782V47.1514H209.407V44.2714C208 45.5436 206.527 46.4534 204.989 47.0005C203.45 47.5475 201.746 47.8208 199.878 47.8208C197.416 47.8208 195.152 47.3633 193.086 46.4478C191.02 45.5328 189.244 44.2714 187.761 42.6641C186.277 41.0568 185.123 39.1701 184.299 37.0045C183.474 34.8393 183.062 32.5064 183.062 30.0057ZM200.966 39.8174C201.625 39.8174 202.318 39.7452 203.043 39.5999C203.769 39.4546 204.499 39.209 205.236 38.8631C205.973 38.5171 206.692 38.054 207.396 37.4733C208.099 36.8929 208.77 36.1786 209.407 35.3301V24.6812C208.77 23.8332 208.099 23.1245 207.396 22.555C206.692 21.9859 205.973 21.5223 205.236 21.1652C204.499 20.808 203.769 20.5567 203.043 20.4119C202.318 20.2666 201.625 20.1944 200.966 20.1939C199.669 20.1939 198.455 20.4395 197.323 20.9308C196.19 21.422 195.207 22.1087 194.372 22.9904C193.536 23.8721 192.882 24.9104 192.41 26.1048C191.937 27.2991 191.701 28.5994 191.701 30.0057C191.701 31.4124 191.937 32.7127 192.41 33.907C192.882 35.1014 193.536 36.1396 194.372 37.0214C195.207 37.9035 196.191 38.5898 197.322 39.081C198.455 39.5718 199.669 39.8174 200.966 39.8174ZM130.775 20.5528C125.162 20.5528 122.687 23.4938 122.687 27.6619V47.1514H114.312V27.8963C114.359 19.867 118.926 11.9735 130.775 11.9735" fill="#77C159"/>
</svg>
