<svg width="627" height="38" viewBox="0 0 627 38" fill="none" xmlns="http://www.w3.org/2000/svg">
<path d="M8.78995 37.4483V34.9546C8.78995 33.9983 8.20792 33.3751 7.25259 33.3751C6.75084 33.3751 6.21397 33.5417 5.83967 34.0776C5.54865 33.62 5.13722 33.3751 4.51004 33.3751C4.27685 33.365 4.0448 33.4129 3.83465 33.5145C3.6245 33.6161 3.44281 33.7682 3.30584 33.9571V33.4554H2.51609V37.4453H3.30584V35.1623C3.30584 34.4599 3.72129 34.1237 4.30332 34.1237C4.88534 34.1237 5.2175 34.498 5.2175 35.1623V37.4483H6.00725V35.1623C6.00725 34.4599 6.4227 34.1237 7.00473 34.1237C7.58675 34.1237 7.91891 34.498 7.91891 35.1623V37.4483H8.78995ZM21.7571 33.4996H20.3021V32.2954H19.5143V33.4996H18.6834V34.202H19.5143V36.0765C19.5143 36.9907 19.8465 37.5316 20.8439 37.5316C21.2218 37.5237 21.5921 37.4238 21.9227 37.2406L21.6728 36.5381C21.4486 36.6783 21.1886 36.7504 20.9242 36.7459C20.5088 36.7459 20.301 36.496 20.301 36.0805V34.1699H21.7561V33.5046L21.7571 33.4996ZM29.1549 33.3751C28.9398 33.3703 28.7271 33.4214 28.5377 33.5235C28.3482 33.6255 28.1885 33.7749 28.0741 33.9571V33.4554H27.2844V37.4453H28.0741V35.2045C28.0741 34.5392 28.4063 34.1237 28.9472 34.1237C29.1297 34.1311 29.3108 34.1591 29.4871 34.207L29.7369 33.4584C29.5464 33.4104 29.3513 33.3825 29.1549 33.3751ZM17.9749 33.7906C17.5595 33.4996 16.9775 33.3751 16.3543 33.3751C15.3568 33.3751 14.7337 33.8327 14.7337 34.6225C14.7337 35.2878 15.1912 35.6611 16.0633 35.7865L16.4787 35.8277C16.9363 35.911 17.2273 36.0775 17.2273 36.2853C17.2273 36.5763 16.8952 36.787 16.271 36.787C15.7944 36.7968 15.3276 36.651 14.9414 36.3716L14.5259 36.9947C15.108 37.4102 15.8144 37.4965 16.2319 37.4965C17.3959 37.4965 18.0191 36.9566 18.0191 36.208C18.0191 35.5055 17.5174 35.1694 16.6473 35.0439L16.2319 35.0028C15.8576 34.9616 15.5294 34.8362 15.5294 34.5873C15.5294 34.2963 15.8616 34.0856 16.3192 34.0856C16.8209 34.0856 17.3167 34.2933 17.5665 34.4178L17.9749 33.7906ZM30.0279 35.4534C30.0279 36.6576 30.8177 37.5316 32.1062 37.5316C32.6882 37.5316 33.1037 37.4072 33.5191 37.074L33.1036 36.4508C32.8095 36.6891 32.4435 36.821 32.065 36.8251C31.3626 36.8251 30.8177 36.2853 30.8177 35.4955C30.8177 34.7058 31.3556 34.1699 32.065 34.1699C32.4435 34.1741 32.8095 34.306 33.1036 34.5442L33.5191 33.921C33.1037 33.5889 32.6882 33.4634 32.1062 33.4634C30.8588 33.3801 30.0279 34.2532 30.0279 35.4584V35.4534ZM24.4585 33.3751C23.2945 33.3751 22.5047 34.206 22.5047 35.4534C22.5047 36.7007 23.3356 37.5316 24.5408 37.5316C25.1271 37.544 25.6997 37.3533 26.1615 36.9917L25.746 36.4097C25.4121 36.6685 25.0043 36.814 24.582 36.8251C24.0421 36.8251 23.4601 36.493 23.3778 35.7865H26.329V35.4544C26.329 34.207 25.5804 33.3761 24.4585 33.3761V33.3751ZM24.4174 34.1237C24.9994 34.1237 25.4149 34.498 25.456 35.1212H23.2955C23.4199 34.5392 23.7972 34.1237 24.4174 34.1237ZM13.6529 35.4534V33.4584H12.8631V33.9602C12.5721 33.5859 12.1607 33.3781 11.5746 33.3781C10.4527 33.3781 9.62084 34.2512 9.62084 35.4564C9.62084 36.6616 10.4517 37.5346 11.5746 37.5346C12.1567 37.5346 12.5721 37.3269 12.8631 36.9526V37.4543H13.6529V35.4534ZM10.4527 35.4534C10.4527 34.7048 10.9103 34.1237 11.7001 34.1237C12.4487 34.1237 12.9043 34.7058 12.9043 35.4534C12.9043 36.2431 12.4025 36.783 11.7001 36.783C10.9103 36.8241 10.4527 36.201 10.4527 35.4534ZM41.1677 33.3751C40.9526 33.3703 40.74 33.4214 40.5505 33.5235C40.3611 33.6255 40.2014 33.7749 40.087 33.9571V33.4554H39.2972V37.4453H40.086V35.2045C40.086 34.5392 40.4181 34.1237 40.959 34.1237C41.1415 34.1311 41.3226 34.1591 41.4989 34.207L41.7488 33.4584C41.5582 33.4104 41.3631 33.3825 41.1667 33.3751H41.1677ZM38.092 35.4534V33.4584H37.3023V33.9602C37.0113 33.5859 36.5998 33.3781 36.0138 33.3781C34.8919 33.3781 34.06 34.2512 34.06 35.4564C34.06 36.6616 34.8909 37.5346 36.0138 37.5346C36.5958 37.5346 37.0113 37.3269 37.3023 36.9526V37.4543H38.092V35.4534ZM34.8919 35.4534C34.8919 34.7048 35.3495 34.1237 36.1392 34.1237C36.8878 34.1237 37.3434 34.7058 37.3434 35.4534C37.3434 36.2431 36.8417 36.783 36.1392 36.783C35.3495 36.8241 34.8919 36.201 34.8919 35.4534ZM46.114 35.4534V31.8789H45.3242V33.9571C45.0332 33.5828 44.6218 33.3751 44.0357 33.3751C42.9138 33.3751 42.0819 34.2482 42.0819 35.4534C42.0819 36.6586 42.9128 37.5316 44.0357 37.5316C44.6178 37.5316 45.0332 37.3239 45.3242 36.9496V37.4513H46.114V35.4534ZM42.9138 35.4534C42.9138 34.7048 43.3714 34.1237 44.1612 34.1237C44.9098 34.1237 45.3654 34.7058 45.3654 35.4534C45.3654 36.2431 44.8636 36.783 44.1612 36.783C43.3704 36.8251 42.9128 36.202 42.9128 35.4534H42.9138Z" fill="black"/>
<path d="M31.4831 3.20117H17.0609V26.7252H31.4831V3.20117Z" fill="#FF5F00"/>
<path d="M18.516 14.9622C18.5165 12.6991 19.029 10.4655 20.015 8.42864C21.0011 6.39173 22.4352 4.60429 24.2099 3.20016C22.0028 1.46483 19.3519 0.38552 16.5604 0.0856133C13.7688 -0.214293 10.9492 0.277306 8.42381 1.50421C5.89845 2.73112 3.76925 4.64383 2.27961 7.02369C0.789971 9.40355 0 12.1545 0 14.9622C0 17.7698 0.789971 20.5208 2.27961 22.9006C3.76925 25.2805 5.89845 27.1932 8.42381 28.4201C10.9492 29.647 13.7688 30.1386 16.5604 29.8387C19.3519 29.5388 22.0028 28.4595 24.2099 26.7241C22.4352 25.32 21.0011 23.5326 20.015 21.4957C19.029 19.4588 18.5165 17.2252 18.516 14.9622Z" fill="#EB001B"/>
<path d="M48.4415 14.9628C48.4436 17.7684 47.6559 20.5179 46.1687 22.8969C44.6815 25.2759 42.5548 27.1883 40.0318 28.4153C37.5088 29.6424 34.6914 30.1346 31.9017 29.8356C29.1121 29.5367 26.463 28.4586 24.2573 26.7248C26.0324 25.321 27.4668 23.5337 28.4529 21.4967C29.439 19.4597 29.9513 17.2259 29.9513 14.9628C29.9513 12.6997 29.439 10.4659 28.4529 8.42894C27.4668 6.39195 26.0324 4.60459 24.2573 3.20082C26.463 1.46699 29.1121 0.388947 31.9017 0.0899915C34.6914 -0.208964 37.5088 0.283238 40.0318 1.5103C42.5548 2.73737 44.6815 4.64976 46.1687 7.02873C47.6559 9.40771 48.4436 12.1572 48.4415 14.9628Z" fill="#F79E1B"/>
<circle cx="90.9414" cy="18.7676" r="2.5" fill="#D9D9D9"/>
<path d="M179.299 3.55664H136.025C134.598 3.55664 133.442 4.71333 133.442 6.14018V31.3943C133.442 32.8211 134.598 33.9778 136.025 33.9778H179.299C180.726 33.9778 181.883 32.8211 181.883 31.3943V6.14018C181.883 4.71333 180.726 3.55664 179.299 3.55664Z" fill="#0E4595"/>
<path d="M151.41 25.144L153.564 12.5H157.011L154.855 25.144H151.41Z" fill="white"/>
<path d="M167.306 12.7723C166.623 12.5161 165.553 12.2412 164.217 12.2412C160.812 12.2412 158.413 13.9561 158.392 16.4139C158.373 18.2307 160.105 19.2442 161.412 19.849C162.754 20.4688 163.205 20.864 163.198 21.4174C163.19 22.265 162.127 22.6522 161.136 22.6522C159.757 22.6522 159.024 22.4605 157.892 21.9885L157.448 21.7875L156.965 24.618C157.769 24.9709 159.258 25.2767 160.804 25.2925C164.426 25.2925 166.778 23.5973 166.805 20.9727C166.818 19.5344 165.9 18.4398 163.911 17.5374C162.707 16.9525 161.969 16.5622 161.977 15.9699C161.977 15.4443 162.601 14.8824 163.95 14.8824C165.077 14.8649 165.894 15.1106 166.53 15.3668L166.839 15.5127L167.306 12.7723Z" fill="white"/>
<path d="M176.174 12.5H173.511C172.686 12.5 172.069 12.7252 171.707 13.5485L166.588 25.1359H170.207C170.207 25.1359 170.799 23.5779 170.933 23.2358C171.328 23.2358 174.844 23.2413 175.347 23.2413C175.45 23.6839 175.766 25.1359 175.766 25.1359H178.964L176.174 12.5ZM171.949 20.6644C172.234 19.9359 173.322 17.13 173.322 17.13C173.302 17.1636 173.605 16.3979 173.779 15.9232L174.012 17.0133C174.012 17.0133 174.672 20.0315 174.81 20.6644H171.949V20.6644Z" fill="white"/>
<path d="M136.405 12.5L136.361 12.7631C137.723 13.0929 138.94 13.5701 140.005 14.1638L143.063 25.1239L146.709 25.1196L152.135 12.5H148.484L145.11 21.1223L144.751 19.3701C144.734 19.3166 144.716 19.2629 144.698 19.2093L143.524 13.5675C143.316 12.7668 142.711 12.5279 141.962 12.5H136.405Z" fill="white"/>
<circle cx="224.383" cy="18.7676" r="2.5" fill="#D9D9D9"/>
<path d="M311.683 34.2676H270.083C268.316 34.2676 266.883 32.879 266.883 31.1676V6.36758C266.883 4.65612 268.316 3.26758 270.083 3.26758H311.683C313.449 3.26758 314.883 4.65612 314.883 6.36758V31.1676C314.883 32.879 313.449 34.2676 311.683 34.2676ZM303.94 25.0838V26.5176C304.152 26.546 304.396 26.5628 304.644 26.5628H304.665C306.524 26.5628 307.405 25.8627 308.165 23.7896L311.517 14.6833H309.579L307.331 21.7177H307.291L305.043 14.6833H303.048L306.281 23.3543L306.108 23.8813C305.991 24.5904 305.363 25.1252 304.608 25.1252C304.571 25.1252 304.533 25.1239 304.496 25.1213H304.501C304.352 25.1148 304.059 25.098 303.941 25.0838H303.94ZM274.5 13.6707H274.465C273.284 13.703 272.264 14.341 271.721 15.2736L271.713 15.2891C270.588 17.1646 271.304 20.0347 272.549 21.7823C273.133 22.609 273.773 23.4176 274.617 23.4176H274.663C275.016 23.3956 275.343 23.3065 275.637 23.1631L275.623 23.1696C275.979 22.9965 276.397 22.8945 276.84 22.8906C277.268 22.8932 277.673 22.9939 278.029 23.1696L278.015 23.1631C278.301 23.3078 278.639 23.3956 278.997 23.4034H279H279.036C279.976 23.3866 280.565 22.5509 281.087 21.8146C281.459 21.2928 281.767 20.6922 281.983 20.0502L281.997 20.0011V19.9882L281.973 19.9779C280.933 19.5193 280.223 18.5247 280.216 17.3674V17.3661C280.227 16.338 280.785 15.439 281.623 14.9287L281.635 14.9223L281.659 14.9068C281.113 14.1473 280.227 13.6487 279.219 13.6229H279.215C279.168 13.6229 279.12 13.6229 279.073 13.6229C278.479 13.6539 277.924 13.7921 277.421 14.0194L277.449 14.0078C277.22 14.1163 276.953 14.1951 276.672 14.2287L276.66 14.23C276.356 14.1977 276.079 14.1176 275.825 13.9962L275.84 14.0026C275.449 13.8192 274.992 13.6991 274.511 13.6681H274.5V13.6707ZM298.651 16.0163C299.824 16.0163 300.472 16.5485 300.472 17.5134V18.1708L298.091 18.3077C295.857 18.4382 294.677 19.3152 294.677 20.8433C294.693 22.2745 295.893 23.4279 297.373 23.4279C297.485 23.4279 297.595 23.4215 297.703 23.4085L297.689 23.4098C297.715 23.4111 297.745 23.4111 297.776 23.4111C298.935 23.4111 299.948 22.8066 300.497 21.9037L300.505 21.8895H300.545V23.313H302.312V17.3894C302.312 15.6715 300.897 14.5632 298.708 14.5632C296.689 14.5632 295.188 15.6844 295.128 17.2279H296.848C297.04 16.5188 297.695 16.0047 298.473 16.0047C298.536 16.0047 298.599 16.0086 298.66 16.015L298.652 16.0137L298.651 16.0163ZM285.549 11.4102V23.3142H287.457V19.2429H290.093C290.155 19.2468 290.228 19.2481 290.3 19.2481C292.457 19.2481 294.205 17.5547 294.205 15.4648C294.205 15.4118 294.204 15.3602 294.203 15.3085V15.3162C294.205 15.2672 294.207 15.2103 294.207 15.1522C294.207 13.083 292.476 11.4064 290.34 11.4064C290.276 11.4064 290.212 11.4077 290.149 11.4102H290.159H285.549ZM279.22 10.5009C278.428 10.5758 277.737 10.9401 277.251 11.4826L277.248 11.4865C276.804 11.9682 276.533 12.6076 276.533 13.3077C276.533 13.3684 276.536 13.4291 276.54 13.4885V13.4808C276.585 13.4808 276.633 13.486 276.687 13.486C277.433 13.4446 278.088 13.0985 278.524 12.5727L278.528 12.5676C278.964 12.0677 279.229 11.4167 279.229 10.7037C279.229 10.6327 279.227 10.5616 279.221 10.4906V10.4996L279.22 10.5009ZM298.201 21.998C297.191 21.998 296.536 21.5266 296.536 20.7981C296.536 20.0463 297.163 19.6136 298.349 19.5452L300.469 19.416V20.089C300.423 21.1585 299.516 22.0071 298.405 22.0071C298.333 22.0071 298.263 22.0032 298.192 21.9967L298.201 21.998ZM289.644 17.6968H287.452V12.968H289.652C289.745 12.9551 289.853 12.9473 289.964 12.9473C291.232 12.9473 292.26 13.9432 292.26 15.1716C292.26 15.2258 292.257 15.2814 292.253 15.3343V15.3266C292.257 15.3731 292.259 15.4286 292.259 15.4842C292.259 16.7164 291.227 17.7162 289.955 17.7162C289.845 17.7162 289.736 17.7084 289.631 17.6942L289.643 17.6955L289.644 17.6968Z" fill="black"/>
<circle cx="357.383" cy="18.7676" r="2.5" fill="#D9D9D9"/>
<path d="M439.584 21.166H399.883V34.392H439.584V21.166Z" fill="#84B740"/>
<path d="M439.584 3.11914H399.883V16.3569H439.584V3.11914Z" fill="#259BD6"/>
<path d="M479.286 31.7058L479.109 31.7412C478.496 31.859 478.272 31.9062 477.824 31.9062C476.787 31.9062 475.561 31.3757 475.561 28.8767C475.561 27.5918 475.773 25.8826 477.706 25.8826H477.718C478.048 25.9062 478.425 25.9415 479.133 26.1537L479.286 26.2009V31.7058ZM479.604 19.246L479.286 19.3049V23.9258L479.003 23.8433L478.92 23.8197C478.602 23.7254 477.871 23.5132 477.164 23.5132C473.298 23.5132 472.484 26.4366 472.484 28.8885C472.484 32.248 474.37 34.1813 477.659 34.1813C479.05 34.1813 480.076 34.0398 481.113 33.698C482.068 33.3915 482.41 32.9553 482.41 32.0241V18.7627C481.49 18.9277 480.535 19.0928 479.604 19.246Z" fill="#27292D"/>
<path d="M490.779 31.7872L490.614 31.8343L490.025 31.9876C489.471 32.129 488.976 32.2115 488.598 32.2115C487.691 32.2115 487.148 31.7636 487.148 30.9974C487.148 30.5023 487.372 29.6653 488.858 29.6653H490.779V31.7872ZM489.423 23.4531C488.233 23.4531 487.007 23.6653 485.486 24.1368L484.496 24.4315L484.826 26.6712L485.793 26.353C486.807 26.0229 488.068 25.8107 489.011 25.8107C489.435 25.8107 490.732 25.8107 490.732 27.2135V27.8264H488.928C485.64 27.8264 484.119 28.8756 484.119 31.127C484.119 33.0485 485.522 34.2037 487.879 34.2037C488.61 34.2037 489.624 34.0622 490.496 33.85L490.543 33.8383L490.59 33.85L490.885 33.8972C491.805 34.0622 492.759 34.2273 493.691 34.4041V27.0484C493.691 24.6673 492.253 23.4531 489.423 23.4531Z" fill="#27292D"/>
<path d="M467.875 31.7872L467.71 31.8343L467.121 31.9876C466.567 32.129 466.083 32.2115 465.694 32.2115C464.787 32.2115 464.244 31.7636 464.244 30.9974C464.244 30.5023 464.468 29.6653 465.942 29.6653H467.863V31.7872H467.875ZM466.531 23.4531C465.329 23.4531 464.115 23.6653 462.594 24.1368L461.604 24.4315L461.934 26.6712L462.901 26.353C463.914 26.0229 465.176 25.8107 466.119 25.8107C466.543 25.8107 467.84 25.8107 467.84 27.2135V27.8264H466.036C462.747 27.8264 461.215 28.8756 461.215 31.127C461.215 33.0485 462.618 34.2037 464.987 34.2037C465.718 34.2037 466.732 34.0622 467.604 33.85L467.651 33.8383L467.698 33.85L467.981 33.8972C468.912 34.0622 469.856 34.2273 470.787 34.4159V27.0602C470.799 24.6555 469.36 23.4531 466.531 23.4531Z" fill="#27292D"/>
<path d="M455.462 23.4766C453.965 23.4766 452.728 23.9717 452.268 24.1839L452.15 24.2428L452.044 24.1603C451.407 23.7006 450.476 23.4648 449.18 23.4648C448.036 23.4648 446.963 23.6299 445.796 23.9717C444.794 24.2782 444.405 24.7615 444.405 25.6692V34.0739H447.541V26.3057L447.694 26.2586C448.331 26.0464 448.708 26.011 449.073 26.011C449.981 26.011 450.441 26.4943 450.441 27.4374V34.0857H453.529V27.3077C453.529 26.9069 453.447 26.6711 453.435 26.624L453.329 26.4236L453.541 26.3293C454.013 26.1171 454.531 26.011 455.073 26.011C455.698 26.011 456.441 26.2586 456.441 27.4374V34.0857H459.518V27.1309C459.518 24.6672 458.197 23.4766 455.462 23.4766Z" fill="#27292D"/>
<path d="M488.469 11.7479C488.009 11.7479 487.243 11.7007 486.642 11.5828L486.465 11.5475V7.00914C486.465 6.63193 486.394 6.39617 486.382 6.36081L486.288 6.17221L486.488 6.08969C486.536 6.06611 486.583 6.05433 486.642 6.03075L486.677 6.00717C486.748 5.9836 486.818 5.96002 486.889 5.93645C486.925 5.92466 486.948 5.91287 486.972 5.91287C487.667 5.72427 488.304 5.74784 488.587 5.72426H488.598C490.52 5.72426 490.744 7.43351 490.744 8.71839C490.732 11.2174 489.494 11.7479 488.469 11.7479ZM488.457 3.11914C488.433 3.11914 488.398 3.11914 488.374 3.11914C486.571 3.11914 484.72 3.61423 484.06 4.58084C483.706 5.05236 483.506 5.64175 483.494 6.33724V11.017C483.494 11.4178 483.412 11.5711 483.4 11.6064L483.294 11.8068H477.6V8.55336H477.588C477.518 5.12308 475.49 3.23702 472.555 3.23702H472.213H469.691C469.573 4.07396 469.478 4.66336 469.361 5.5003H472.213C473.71 5.5003 474.5 6.77339 474.5 8.73018V12.0072L474.3 11.9011C474.264 11.8893 474.017 11.8068 473.628 11.8068H468.7C468.606 12.4316 468.488 13.2449 468.359 14.0583H483.506C484.025 13.9522 484.626 13.8579 485.145 13.7754C485.911 14.1526 487.337 14.353 488.315 14.353C491.604 14.353 493.738 12.1487 493.738 8.75375C493.726 5.39421 491.663 3.18987 488.457 3.11914Z" fill="#27292D"/>
<path d="M461.899 15.4377H462.04C465.329 15.4377 466.861 14.3532 466.861 11.6774C466.861 9.75594 465.459 8.22351 463.101 8.22351H460.072C459.164 8.22351 458.622 7.70484 458.622 6.83254C458.622 6.24315 458.846 5.5123 460.331 5.5123H466.956C467.097 4.65178 467.168 4.10954 467.298 3.24902H460.413C457.207 3.24902 455.592 4.59284 455.592 6.83254C455.592 9.04866 456.995 10.2039 459.352 10.2039H462.382C463.29 10.2039 463.832 10.9229 463.832 11.6774C463.832 12.1725 463.608 13.198 462.134 13.198H461.628L451.926 13.1744H450.158C448.661 13.1744 447.612 12.3257 447.612 10.3571V9.00152C447.612 6.95042 448.425 5.67733 450.158 5.67733H453.034C453.164 4.80503 453.246 4.25099 453.364 3.42584H449.781H449.439C446.504 3.42584 444.476 5.39442 444.405 8.8247V8.95436V10.3571C444.476 13.7874 446.504 15.4259 449.439 15.4259H449.781H452.303L457.561 15.4377H460.696H461.899Z" fill="#27292D"/>
<circle cx="536.238" cy="18.7676" r="2.5" fill="#D9D9D9"/>
<g clip-path="url(#clip0_292_96)">
<path d="M597.116 6.76758V11.8143H602.047V6.76758H597.116ZM602.047 11.8143V16.5994H606.977V11.8143H602.047ZM602.047 16.5994H597.116V25.0853C597.116 26.8048 597.639 28.1883 598.573 29.1601C599.619 30.207 601.15 30.7675 603.055 30.7675C604.998 30.7675 606.38 30.1695 606.977 29.6461V25.6087C606.529 25.9453 605.633 26.3561 604.475 26.3561C603.653 26.3561 603.055 26.1693 602.607 25.7581C602.233 25.3844 602.047 24.7491 602.047 23.8891V16.5994ZM586.47 11.2537C584.192 11.2537 582.287 12.0011 580.979 13.1973C579.859 14.2442 579.223 15.6647 579.223 17.2351C579.223 18.6181 579.672 19.7771 580.568 20.6742C581.465 21.5714 582.772 22.2441 584.49 22.6554L587.329 23.3285C588.749 23.6647 589.384 24.1881 589.384 25.1228C589.384 26.2815 588.338 26.9542 586.62 26.9542C585.387 26.9542 584.378 26.5434 583.743 25.8702C583.295 25.4219 583.033 24.8237 582.996 24.1506L578.738 25.0853C578.85 26.3561 579.448 27.4781 580.344 28.3748C581.764 29.8704 584.042 30.7675 586.62 30.7675C589.122 30.7675 591.177 29.9826 592.521 28.6743C593.53 27.6646 594.128 26.319 594.128 24.7491C594.128 23.3285 593.605 22.0573 592.633 21.0854C591.662 20.1132 590.28 19.403 588.525 19.0669L585.648 18.5059C584.453 18.2815 583.781 17.6834 583.781 16.8609C583.781 15.7769 584.826 15.0295 586.508 15.0295C587.553 15.0295 588.45 15.3657 589.048 15.9638C589.421 16.375 589.682 16.8984 589.757 17.4965L593.904 16.5619C593.792 15.3657 593.231 14.3192 592.372 13.4592C591.027 12.1133 588.936 11.2537 586.47 11.2537ZM617.997 11.2537C615.345 11.2537 612.954 12.263 611.236 13.9826C609.517 15.7398 608.472 18.1692 608.472 21.0104C608.472 23.8515 609.555 26.2815 611.311 28.0386C613.029 29.7583 615.457 30.7675 618.146 30.7675C620.911 30.7675 623.04 29.7583 624.497 28.3377C625.655 27.2162 626.364 25.9078 626.738 24.5618L622.367 23.1041C622.181 23.7769 621.807 24.4872 621.209 25.0477C620.499 25.7209 619.528 26.2068 618.146 26.2068C616.877 26.2068 615.681 25.7209 614.822 24.8609C613.963 23.9638 613.44 22.6553 613.44 21.0104C613.44 19.3283 613.963 18.0571 614.822 17.1604C615.681 16.3003 616.839 15.8519 618.109 15.8519C619.454 15.8519 620.388 16.3003 621.06 16.9731C621.621 17.5341 621.957 18.2444 622.181 18.9546L626.626 17.459C626.289 16.1506 625.58 14.8422 624.534 13.7582C623.04 12.3005 620.873 11.2537 617.997 11.2537Z" fill="#4F008C"/>
</g>
<defs>
<clipPath id="clip0_292_96">
<rect width="48" height="24" fill="white" transform="translate(578.738 6.76758)"/>
</clipPath>
</defs>
</svg>
