<svg width="76" height="76" viewBox="0 0 76 76" fill="none" xmlns="http://www.w3.org/2000/svg">
<path d="M56.5502 56.4443H32.5502C31.5689 56.4443 30.7725 57.2399 30.7725 58.2221C30.7725 59.2034 31.5689 59.9999 32.5502 59.9999H56.5502C57.5325 59.9999 58.328 59.2034 58.328 58.2221C58.328 57.2399 57.5316 56.4443 56.5502 56.4443Z" fill="#274A90"/>
<path d="M67.1716 4H20.8285C17.4259 4 14.6667 6.75911 14.6667 10.1618V43.1716C14.6667 46.5742 17.4259 49.3333 20.8285 49.3342H67.1716C70.5743 49.3342 73.3334 46.5751 73.3334 43.1716V10.1618C73.3334 6.75911 70.5743 4 67.1716 4ZM18.2223 13.7778H69.7787V37.7778H18.2223V13.7778ZM20.8285 7.55556H67.1716C68.6116 7.55556 69.7779 8.72267 69.7779 10.1618L69.7787 12H18.2223V10.1618C18.2223 8.72267 19.3894 7.55556 20.8285 7.55556ZM67.1716 45.7778H20.8285C19.3894 45.7778 18.2223 44.6116 18.2223 43.1716V39.5556H69.7787V43.1716C69.7787 44.6116 68.6116 45.7778 67.1716 45.7778Z" fill="#274A90"/>
<path d="M41.458 24.407C41.0011 24.2275 40.4846 24.4541 40.3068 24.9119L40.066 25.5306C39.8864 25.9884 40.1131 26.5039 40.5708 26.6817C40.6766 26.7235 40.786 26.7421 40.8926 26.7421C41.2482 26.7421 41.5842 26.5279 41.722 26.1768L41.9628 25.5581C42.1415 25.1004 41.9157 24.5848 41.458 24.407Z" fill="#274A90"/>
<path d="M40.3477 27.2559C39.889 27.0755 39.3752 27.3039 39.1974 27.7608L36.6766 34.2346C36.497 34.6932 36.7237 35.2088 37.1814 35.3857C37.2872 35.4275 37.3966 35.4461 37.5032 35.4461C37.8597 35.4461 38.1957 35.231 38.3326 34.8799L40.8534 28.407C41.0321 27.9492 40.8054 27.4337 40.3477 27.2559Z" fill="#274A90"/>
<path d="M37.9102 18.217C37.4516 18.0374 36.9378 18.265 36.7591 18.7227L33.0738 28.1912C32.8951 28.649 33.1218 29.1636 33.5796 29.3414C33.6853 29.3832 33.7947 29.4018 33.9013 29.4018C34.2569 29.4018 34.5929 29.1867 34.7307 28.8356L38.416 19.3672C38.5947 18.9094 38.368 18.3947 37.9102 18.217Z" fill="#274A90"/>
<path d="M33.0357 30.7359C32.5806 30.5563 32.0633 30.783 31.8846 31.2408L31.3433 32.6328C31.1637 33.0905 31.3904 33.6061 31.8482 33.7839C31.954 33.8265 32.0633 33.8443 32.17 33.8443C32.5264 33.8443 32.8624 33.6292 32.9993 33.279L33.5406 31.887C33.7202 31.4292 33.4935 30.9137 33.0357 30.7359Z" fill="#274A90"/>
<circle cx="19" cy="57" r="19" fill="#E7A141" fill-opacity="0.1"/>
</svg>
