<svg width="76" height="73" viewBox="0 0 76 73" fill="none" xmlns="http://www.w3.org/2000/svg">
<path d="M71.64 20.3547C74.04 20.3547 76 18.3947 76 15.9947C76 13.5947 74.04 11.632 71.64 11.632C69.24 11.632 67.2773 13.592 67.2773 15.9947C67.2773 18.3973 69.2053 20.3547 71.64 20.3547ZM58.5547 34.8933C60.8681 34.8933 63.0867 33.9743 64.7225 32.3385C66.3583 30.7027 67.2773 28.4841 67.2773 26.1707C67.2773 23.8573 66.3583 21.6386 64.7225 20.0028C63.0867 18.367 60.8681 17.448 58.5547 17.448C56.2413 17.448 54.0226 18.367 52.3868 20.0028C50.751 21.6386 49.832 23.8573 49.832 26.1707C49.832 28.4841 50.751 30.7027 52.3868 32.3385C54.0226 33.9743 56.2413 34.8933 58.5547 34.8933ZM58.5547 58.152C64.168 58.152 68.7307 53.5893 68.7307 47.9413C68.7307 42.2933 64.168 37.7653 58.52 37.7653C55.822 37.7682 53.2354 38.8412 51.3276 40.7489C49.4198 42.6567 48.3468 45.2434 48.344 47.9413C48.3422 49.2828 48.6051 50.6115 49.1176 51.8513C49.6301 53.091 50.3821 54.2175 51.3306 55.1662C52.279 56.1149 53.4053 56.8672 54.6449 57.38C55.8846 57.8928 57.2132 58.1534 58.5547 58.152ZM29.4453 34.8907C34.0721 34.8907 38.5094 33.0527 41.781 29.781C45.0527 26.5094 46.8907 22.0721 46.8907 17.4453C46.8907 12.8185 45.0527 8.38125 41.781 5.10962C38.5094 1.83799 34.0721 0 29.4453 0C24.8185 0 20.3813 1.83799 17.1096 5.10962C13.838 8.38125 12 12.8185 12 17.4453C12 22.0721 13.838 26.5094 17.1096 29.781C20.3813 33.0527 24.8185 34.8907 29.4453 34.8907Z" fill="#274A90"/>
<circle cx="19" cy="54" r="19" fill="#E7A141" fill-opacity="0.1"/>
</svg>
