<svg width="71" height="71" viewBox="0 0 71 71" fill="none" xmlns="http://www.w3.org/2000/svg">
<circle cx="19" cy="51.6667" r="19" fill="#E7A141" fill-opacity="0.1"/>
<path fill-rule="evenodd" clip-rule="evenodd" d="M69.4142 52.0809C70.1953 51.2998 70.1953 50.0337 69.4142 49.2526L48.8285 28.6667H58.25C59.3546 28.6667 60.25 27.7713 60.25 26.6667C60.25 25.5622 59.3546 24.6667 58.25 24.6667H44C42.8955 24.6667 42 25.5622 42 26.6667V40.9169C42 42.0214 42.8955 42.9169 44 42.9169C45.1045 42.9169 46 42.0214 46 40.9169V31.4953L66.5858 52.0809C67.3668 52.8619 68.6332 52.8619 69.4142 52.0809Z" fill="#274A90"/>
<path d="M66.618 40.7992L58.481 32.6624C61.6877 32.5411 64.2501 29.9029 64.2501 26.6667C64.2501 23.3531 61.5638 20.6667 58.2501 20.6667H44.0001C40.6865 20.6667 38.0001 23.3531 38.0001 26.6667V40.9168C38.0001 44.2304 40.6865 46.9165 44.0001 46.9165C47.2363 46.9165 49.8744 44.3544 49.9957 41.1475L58.1327 49.2845C54.0353 51.8501 49.191 53.3333 44.0001 53.3333C29.2726 53.3333 17.3334 41.3941 17.3334 26.6667C17.3334 11.9391 29.2726 0 44.0001 0C58.7277 0 70.6667 11.9391 70.6667 26.6667C70.6667 31.8576 69.1836 36.7019 66.618 40.7992Z" fill="#274A90"/>
</svg>
