<svg width="76" height="76" viewBox="0 0 76 76" fill="none" xmlns="http://www.w3.org/2000/svg">
<path d="M62.6664 46.6668V17.3335C62.8342 14.3299 61.8067 11.382 59.8081 9.13363C57.8094 6.88523 55.0024 5.51904 51.9998 5.3335H35.9998C32.9973 5.51904 30.1902 6.88523 28.1916 9.13363C26.1931 11.382 25.1654 14.3299 25.3332 17.3335V46.6668C25.1654 49.6703 26.1931 52.618 28.1916 54.8663C30.1902 57.1148 32.9973 58.481 35.9998 58.6666H51.9998C55.0024 58.481 57.8094 57.1148 59.8081 54.8663C61.8067 52.618 62.8342 49.6703 62.6664 46.6668Z" stroke="#274A90" stroke-width="4.5" stroke-linecap="round" stroke-linejoin="round"/>
<path d="M49.3337 13.3335H38.667" stroke="#274A90" stroke-width="4.5" stroke-linecap="round" stroke-linejoin="round"/>
<circle cx="19" cy="57" r="19" fill="#E7A141" fill-opacity="0.1"/>
</svg>
